<mxfile host="65bd71144e">
    <diagram id="FARl3F_p4j9zgR3MaIGv" name="Page-1">
        <mxGraphModel dx="680" dy="1331" grid="1" gridSize="10" guides="1" tooltips="1" connect="1" arrows="1" fold="1" page="1" pageScale="1" pageWidth="827" pageHeight="1169" math="0" shadow="0">
            <root>
                <mxCell id="0"/>
                <mxCell id="1" parent="0"/>
                <mxCell id="dglke4119jHSROywguR2-3" value="Langi" style="rounded=0;whiteSpace=wrap;html=1;verticalAlign=top;movable=1;" parent="1" vertex="1">
                    <mxGeometry x="90" y="160" width="610" height="800" as="geometry"/>
                </mxCell>
                <mxCell id="dglke4119jHSROywguR2-16" style="edgeStyle=none;rounded=0;orthogonalLoop=1;jettySize=auto;html=1;exitX=1;exitY=0.3333333333333333;exitDx=0;exitDy=0;exitPerimeter=0;entryX=0;entryY=0.5;entryDx=0;entryDy=0;endArrow=none;endFill=0;entryPerimeter=0;" parent="1" source="dglke4119jHSROywguR2-4" target="dglke4119jHSROywguR2-48" edge="1">
                    <mxGeometry relative="1" as="geometry">
                        <mxPoint x="120" y="515" as="targetPoint"/>
                    </mxGeometry>
                </mxCell>
                <mxCell id="dglke4119jHSROywguR2-17" style="edgeStyle=none;rounded=0;orthogonalLoop=1;jettySize=auto;html=1;exitX=1;exitY=0.3333333333333333;exitDx=0;exitDy=0;exitPerimeter=0;entryX=0;entryY=0.5;entryDx=0;entryDy=0;endArrow=none;endFill=0;" parent="1" source="dglke4119jHSROywguR2-4" target="dglke4119jHSROywguR2-9" edge="1">
                    <mxGeometry relative="1" as="geometry"/>
                </mxCell>
                <mxCell id="dglke4119jHSROywguR2-4" value="User&lt;br&gt;" style="shape=umlActor;html=1;verticalLabelPosition=bottom;verticalAlign=top;align=center;" parent="1" vertex="1">
                    <mxGeometry x="10" y="540" width="30" height="60" as="geometry"/>
                </mxCell>
                <mxCell id="dglke4119jHSROywguR2-9" value="Create New Deck" style="ellipse;whiteSpace=wrap;html=1;" parent="1" vertex="1">
                    <mxGeometry x="140" y="780" width="140" height="70" as="geometry"/>
                </mxCell>
                <mxCell id="dglke4119jHSROywguR2-10" value="Export Deck" style="ellipse;whiteSpace=wrap;html=1;" parent="1" vertex="1">
                    <mxGeometry x="280" y="650" width="140" height="70" as="geometry"/>
                </mxCell>
                <mxCell id="dglke4119jHSROywguR2-24" style="edgeStyle=none;rounded=0;orthogonalLoop=1;jettySize=auto;html=1;exitX=0;exitY=0.3333333333333333;exitDx=0;exitDy=0;exitPerimeter=0;entryX=1;entryY=0.5;entryDx=0;entryDy=0;endArrow=none;endFill=0;entryPerimeter=0;" parent="1" source="dglke4119jHSROywguR2-5" target="dglke4119jHSROywguR2-48" edge="1">
                    <mxGeometry relative="1" as="geometry">
                        <mxPoint x="259.9999999999999" y="515" as="targetPoint"/>
                        <Array as="points">
                            <mxPoint x="590" y="510"/>
                        </Array>
                    </mxGeometry>
                </mxCell>
                <mxCell id="dglke4119jHSROywguR2-55" style="edgeStyle=none;rounded=0;orthogonalLoop=1;jettySize=auto;html=1;exitX=0;exitY=0.3333333333333333;exitDx=0;exitDy=0;exitPerimeter=0;entryX=1;entryY=0.5;entryDx=0;entryDy=0;endArrow=none;endFill=0;" parent="1" source="dglke4119jHSROywguR2-5" target="dglke4119jHSROywguR2-51" edge="1">
                    <mxGeometry relative="1" as="geometry"/>
                </mxCell>
                <mxCell id="dglke4119jHSROywguR2-56" style="edgeStyle=none;rounded=0;orthogonalLoop=1;jettySize=auto;html=1;exitX=0;exitY=0.3333333333333333;exitDx=0;exitDy=0;exitPerimeter=0;entryX=1;entryY=0.5;entryDx=0;entryDy=0;endArrow=none;endFill=0;" parent="1" source="dglke4119jHSROywguR2-5" target="dglke4119jHSROywguR2-33" edge="1">
                    <mxGeometry relative="1" as="geometry"/>
                </mxCell>
                <mxCell id="dglke4119jHSROywguR2-5" value="Database" style="shape=umlActor;html=1;verticalLabelPosition=bottom;verticalAlign=top;align=center;" parent="1" vertex="1">
                    <mxGeometry x="770" y="450" width="30" height="60" as="geometry"/>
                </mxCell>
                <mxCell id="dglke4119jHSROywguR2-29" value="View Deck Edit" style="ellipse;whiteSpace=wrap;html=1;" parent="1" vertex="1">
                    <mxGeometry x="420" y="250" width="140" height="70" as="geometry"/>
                </mxCell>
                <mxCell id="dglke4119jHSROywguR2-32" value="&amp;lt;&amp;lt;extend&amp;gt;&amp;gt;" style="edgeStyle=none;html=1;startArrow=open;endArrow=none;startSize=12;verticalAlign=bottom;dashed=1;labelBackgroundColor=none;rounded=0;entryX=0;entryY=0.5;entryDx=0;entryDy=0;exitX=0.855;exitY=0.145;exitDx=0;exitDy=0;exitPerimeter=0;" parent="1" source="dglke4119jHSROywguR2-48" target="dglke4119jHSROywguR2-29" edge="1">
                    <mxGeometry width="160" relative="1" as="geometry">
                        <mxPoint x="239.49747468305827" y="490.25126265847075" as="sourcePoint"/>
                        <mxPoint x="440" y="710" as="targetPoint"/>
                    </mxGeometry>
                </mxCell>
                <mxCell id="dglke4119jHSROywguR2-33" value="Delete Deck" style="ellipse;whiteSpace=wrap;html=1;" parent="1" vertex="1">
                    <mxGeometry x="414" y="550" width="140" height="70" as="geometry"/>
                </mxCell>
                <mxCell id="dglke4119jHSROywguR2-35" value="&amp;lt;&amp;lt;extend&amp;gt;&amp;gt;" style="edgeStyle=none;html=1;startArrow=open;endArrow=none;startSize=12;verticalAlign=bottom;dashed=1;labelBackgroundColor=none;rounded=0;entryX=0;entryY=0.5;entryDx=0;entryDy=0;exitX=0.855;exitY=0.855;exitDx=0;exitDy=0;exitPerimeter=0;" parent="1" source="dglke4119jHSROywguR2-48" target="dglke4119jHSROywguR2-33" edge="1">
                    <mxGeometry width="160" relative="1" as="geometry">
                        <mxPoint x="239.49747468305827" y="539.7487373415292" as="sourcePoint"/>
                        <mxPoint x="440" y="710" as="targetPoint"/>
                    </mxGeometry>
                </mxCell>
                <mxCell id="dglke4119jHSROywguR2-36" value="&amp;lt;&amp;lt;extend&amp;gt;&amp;gt;" style="edgeStyle=none;html=1;startArrow=open;endArrow=none;startSize=12;verticalAlign=bottom;dashed=1;labelBackgroundColor=none;rounded=0;entryX=0;entryY=0.5;entryDx=0;entryDy=0;exitX=0.5;exitY=1;exitDx=0;exitDy=0;exitPerimeter=0;" parent="1" source="dglke4119jHSROywguR2-48" target="dglke4119jHSROywguR2-10" edge="1">
                    <mxGeometry width="160" relative="1" as="geometry">
                        <mxPoint x="190" y="550" as="sourcePoint"/>
                        <mxPoint x="440" y="710" as="targetPoint"/>
                    </mxGeometry>
                </mxCell>
                <mxCell id="dglke4119jHSROywguR2-37" value="View Blank Deck" style="ellipse;whiteSpace=wrap;html=1;" parent="1" vertex="1">
                    <mxGeometry x="360" y="780" width="140" height="70" as="geometry"/>
                </mxCell>
                <mxCell id="dglke4119jHSROywguR2-48" value="Edit, Delete, Export, Learn" style="html=1;shape=mxgraph.sysml.useCaseExtPt;whiteSpace=wrap;align=center;" parent="1" vertex="1">
                    <mxGeometry x="140" y="390" width="160" height="80" as="geometry"/>
                </mxCell>
                <mxCell id="dglke4119jHSROywguR2-49" value="View Decks" style="resizable=0;html=1;verticalAlign=middle;align=center;labelBackgroundColor=none;fontStyle=1;" parent="dglke4119jHSROywguR2-48" connectable="0" vertex="1">
                    <mxGeometry x="80" y="17" as="geometry"/>
                </mxCell>
                <mxCell id="dglke4119jHSROywguR2-50" value="&amp;lt;&amp;lt;include&amp;gt;&amp;gt;" style="edgeStyle=none;html=1;endArrow=open;verticalAlign=bottom;dashed=1;labelBackgroundColor=none;rounded=0;exitX=1;exitY=0.5;exitDx=0;exitDy=0;entryX=0;entryY=0.5;entryDx=0;entryDy=0;" parent="1" source="dglke4119jHSROywguR2-9" target="dglke4119jHSROywguR2-37" edge="1">
                    <mxGeometry width="160" relative="1" as="geometry">
                        <mxPoint x="320" y="550" as="sourcePoint"/>
                        <mxPoint x="480" y="550" as="targetPoint"/>
                    </mxGeometry>
                </mxCell>
                <mxCell id="dglke4119jHSROywguR2-51" value="Save Deck" style="ellipse;whiteSpace=wrap;html=1;" parent="1" vertex="1">
                    <mxGeometry x="540" y="380" width="140" height="70" as="geometry"/>
                </mxCell>
                <mxCell id="dglke4119jHSROywguR2-52" value="&amp;lt;&amp;lt;extend&amp;gt;&amp;gt;" style="edgeStyle=none;html=1;startArrow=open;endArrow=none;startSize=12;verticalAlign=bottom;dashed=1;labelBackgroundColor=none;rounded=0;exitX=1;exitY=0.5;exitDx=0;exitDy=0;entryX=0.5;entryY=1;entryDx=0;entryDy=0;" parent="1" source="dglke4119jHSROywguR2-37" target="dglke4119jHSROywguR2-51" edge="1">
                    <mxGeometry width="160" relative="1" as="geometry">
                        <mxPoint x="320" y="550" as="sourcePoint"/>
                        <mxPoint x="480" y="550" as="targetPoint"/>
                        <Array as="points">
                            <mxPoint x="640" y="815"/>
                        </Array>
                    </mxGeometry>
                </mxCell>
                <mxCell id="dglke4119jHSROywguR2-53" value="&amp;lt;&amp;lt;extend&amp;gt;&amp;gt;" style="edgeStyle=none;html=1;startArrow=open;endArrow=none;startSize=12;verticalAlign=bottom;dashed=1;labelBackgroundColor=none;rounded=0;entryX=0;entryY=0;entryDx=0;entryDy=0;exitX=1;exitY=1;exitDx=0;exitDy=0;" parent="1" source="dglke4119jHSROywguR2-29" target="dglke4119jHSROywguR2-51" edge="1">
                    <mxGeometry width="160" relative="1" as="geometry">
                        <mxPoint x="320" y="550" as="sourcePoint"/>
                        <mxPoint x="480" y="550" as="targetPoint"/>
                    </mxGeometry>
                </mxCell>
            </root>
        </mxGraphModel>
    </diagram>
</mxfile>